<svg xmlns="http://www.w3.org/2000/svg" xmlns:xlink="http://www.w3.org/1999/xlink" version="1.1" x="0px" y="0px" viewBox="0 0 32 40" enable-background="new 0 0 32 32" xml:space="preserve"><g display="none"><path display="inline" d="M8,0.305c-1.1,0-2,0.9-2,2v28c0,1.1,0.836,1.666,1.857,1.256l6.285-2.514   c1.021-0.408,2.693-0.408,3.715,0l6.285,2.514C25.164,31.971,26,31.405,26,30.305v-28c0-1.1-0.9-2-2-2H8z"/></g><g display="none"><path display="inline" fill-rule="evenodd" clip-rule="evenodd" d="M30,12h-2.758C26.557,10.223,25.441,8.635,24,7.353V0   c-3.965,0-5.305,2.613-5.762,4.391C17.203,4.145,16.121,4,15,4C8.545,4,3.203,8.346,2.188,14.039C2.121,14.031,2.066,14,2,14   c-1.105,0-2,0.894-2,2s0.895,2,2,2c0.066,0,0.125-0.031,0.189-0.039C2.656,20.568,4.023,22.893,6,24.646V30c0,1.105,0.894,2,2,2h2   c1.105,0,2-0.895,2-2v-2.334C12.965,27.877,13.965,28,15,28c0.34,0,0.664-0.061,1-0.084V30c0,1.105,0.895,2,2,2h2   c1.105,0,2-0.895,2-2v-3.928c3.01-1.791,5.185-4.68,5.805-8.072H30c1.105,0,2-0.895,2-2v-2C32,12.894,31.105,12,30,12z"/></g><g><path fill-rule="evenodd" clip-rule="evenodd" d="M16,2C7.164,2,0,7.373,0,14c0,3.574,2.098,6.777,5.406,8.975L4,30l7.488-4.492   C12.92,25.824,14.432,26,16,26c8.836,0,16-5.373,16-12C32,7.373,24.836,2,16,2z"/></g><text x="0" y="47" fill="#000000" font-size="5px" font-weight="bold" font-family="'Helvetica Neue', Helvetica, Arial-Unicode, Arial, Sans-serif">Created by Noe Araujo</text><text x="0" y="52" fill="#000000" font-size="5px" font-weight="bold" font-family="'Helvetica Neue', Helvetica, Arial-Unicode, Arial, Sans-serif">from the Noun Project</text></svg>